<svg xmlns="http://www.w3.org/2000/svg" viewBox="0 0 50 50">
  <path fill="#97bc62" d="M25,5 C30,15 40,20 45,25 C40,30 30,35 25,45 C20,35 10,30 5,25 C10,20 20,15 25,5 Z" />
  <path fill="#1a472a" stroke="#1a472a" stroke-width="1" fill-opacity="0.3" d="M25,12 C28,18 32,22 38,25 C32,28 28,32 25,38 C22,32 18,28 12,25 C18,22 22,18 25,12 Z" />
  <path fill="none" stroke="#aad576" stroke-width="1" d="M25,5 C25,20 25,30 25,45" stroke-dasharray="2,2" />
  <path fill="none" stroke="#aad576" stroke-width="1" d="M5,25 C15,25 35,25 45,25" stroke-dasharray="2,2" />
</svg>
